<svg width="1240" height="917" viewBox="0 0 1240 917" fill="none" xmlns="http://www.w3.org/2000/svg">
<rect width="1240" height="917" fill="#0B7572"/>
<mask id="mask0" mask-type="alpha" maskUnits="userSpaceOnUse" x="33" y="0" width="1140" height="917">
<rect x="33" width="1140" height="917" fill="#0B7572"/>
</mask>
<g mask="url(#mask0)">
<path d="M684.253 861.714C637.228 845.197 550.891 784.041 550.891 767.248C550.891 764.377 540.171 743.654 527.068 721.198C512.43 696.11 495.765 650.622 483.846 603.22C466.355 533.658 464.517 514.864 465.157 412.103C465.769 313.712 464.391 298.134 455.071 298.134C437.372 298.134 317.71 326.266 304.589 333.512C297.913 337.198 287.876 340.215 282.284 340.215C261.338 340.215 264.837 353.838 288.702 365.201L313.426 376.973L309.801 416.455C307.808 438.17 304.369 464.616 302.159 475.224C297.405 498.043 296.165 497.875 359.558 483.001C414.467 470.117 432.783 472.692 427.603 492.568C424.97 502.67 412.611 507.365 371.285 513.962C303.518 524.781 296.649 530.472 302.021 571.355C304.324 588.88 308.145 644.942 310.511 695.937L314.813 788.654L296.266 797.133C258.524 814.388 229.324 788.897 209.78 721.635C198.95 684.363 199.013 683.874 214.624 683.874C231.874 683.874 236.129 671.293 241.202 605.292L245.404 550.619L214.66 551.152C197.752 551.446 173.098 555.608 159.874 560.402C134.344 569.658 122.739 585.686 141.568 585.686C174.362 585.686 175.302 705.745 142.678 727.601C126.622 738.358 103.607 732.59 92.0662 714.917C80.8277 697.707 81.0242 695.337 96.2814 664.07C130.605 593.73 128.054 574.6 84.7095 577.284C30.6622 580.63 37.3968 567.041 97.6486 551.176C183.385 528.599 179.697 530.955 158.34 512.415C139.359 495.938 117.512 459.764 117.512 444.812C117.512 438.997 126.927 437.791 148.814 440.801C192.883 446.862 207.998 458.35 213 489.582C216.117 509.05 220.3 515.627 228.551 514.033C242.087 511.418 244.676 479.036 235.429 428.006C225.63 373.928 219.302 370.539 154.303 384.553C89.7376 398.474 87.6279 398.608 90.9619 388.572C93.9143 379.685 105.826 375.019 267.797 319.292C333.153 296.806 408.233 270.222 434.641 260.217C484.915 241.17 541.467 236.472 565.45 249.35C578.781 256.509 578.717 257.184 562.631 279.158C553.579 291.523 540.941 313.168 534.548 327.256C522.642 353.491 508.054 437.631 513.738 447.279C515.477 450.233 518.588 472.325 520.649 496.374C525.083 548.098 564.3 672.136 588.26 710.218C605.18 737.112 651.248 782.063 661.89 782.063C673.557 782.063 704.67 733.675 704.67 715.53C704.67 693.086 720.128 706.523 736.166 742.908C754.156 783.725 755.939 829.163 740.66 857.458C730.721 875.864 725.631 876.248 684.253 861.714ZM417.335 697.265C394.671 684.929 323.875 616.847 323.61 607.134C323.551 604.981 320.877 599.065 317.667 593.986C308.199 579.005 316.497 577.275 359.73 585.215C414.013 595.184 453.492 623.098 466.597 660.777C474.936 684.751 475.089 691.642 467.489 700.831C455.918 714.82 448.632 714.302 417.335 697.265ZM332.255 415.609C334.297 399.215 337.993 383.529 340.468 380.752C344.743 375.954 415.672 391.567 422.999 398.919C430.628 406.573 416.79 415.884 385.059 424.448C366.699 429.403 348.688 436.148 345.036 439.437C331.955 451.216 328.599 444.958 332.255 415.609ZM194.402 242.47C200.169 239.092 231.624 228.343 264.302 218.584C296.98 208.824 342.589 192.823 365.656 183.025C408.506 164.824 434.456 161.501 473.127 169.261C505.293 175.716 499.755 190.634 461.769 199.859C443.507 204.293 403.402 213.862 372.646 221.122C341.89 228.382 305.738 237.634 292.308 241.681C262.248 250.739 179.144 251.409 194.402 242.47ZM154.21 185.7C134.293 177.667 134.456 175.762 157.705 144.819C202.383 85.3538 231.66 22.5304 227.607 -5.17968L224.562 -26L257.843 -21.5702C276.147 -19.1339 301.059 -13.6655 313.202 -9.41827C332.411 -2.69944 334.702 0.696472 330.834 16.7164C325.447 39.0273 284.513 108.77 276.805 108.77C273.773 108.77 271.292 113.564 271.292 119.424C271.292 134.031 293.578 127.848 376.966 90.105C447.578 58.1455 488.563 51.8065 512.246 69.1819C535.559 86.2863 520.833 101.757 481.238 101.757C461.91 101.757 427.998 107.79 405.877 115.164C383.756 122.538 339.251 132.463 306.977 137.22C271.762 142.41 243.718 150.463 236.846 157.359C226.71 167.528 178.766 193.652 172.376 192.487C171.034 192.243 162.86 189.188 154.21 185.7Z" fill="white" fill-opacity="0.08"/>
</g>
</svg>
